# xmcd
#
# Track frame offsets: 
#        150
#        40910
#        84409
#        100086
#        114241
#        145697
#        180627
#
# Disc length: 2755 seconds
#
# Revision: 3
# Processed by: cddbd v1.5.2PL0 Copyright (c) Steve Scherf et al.
# Submitted via: ExactAudioCopy v0.99pb3
#
DISCID=4d0ac107
DTITLE=Gerry Mulligan - Paul Desmond - Blues in Time
DYEAR=1957
DGENRE=Jazz
TTITLE0=Blues in Time
TTITLE1=Body and Soul
TTITLE2=Stand Still
TTITLE3=Line for Lyons
TTITLE4=Wintersong
TTITLE5=Battle Hymn of the Republican
TTITLE6=Fall Out
EXTD=Original Master Recording
EXTT0=
EXTT1=
EXTT2=
EXTT3=
EXTT4=
EXTT5=
EXTT6=
PLAYORDER=
